<?xml version="1.0" encoding="utf-8"?>
<!-- Generator: Adobe Illustrator 27.4.0, SVG Export Plug-In . SVG Version: 6.00 Build 0)  -->
<svg version="1.1" id="_レイヤー_1" xmlns="http://www.w3.org/2000/svg" xmlns:xlink="http://www.w3.org/1999/xlink" x="0px"
	 y="0px" viewBox="0 0 353 80" style="enable-background:new 0 0 353 80;" xml:space="preserve">
<style type="text/css">
	.st0{fill:none;stroke:#399C37;stroke-width:3.3;stroke-linecap:round;stroke-miterlimit:10;}
	.st1{fill:none;stroke:#FFFFFF;stroke-width:1.28;stroke-linecap:round;stroke-miterlimit:10;}
</style>
<path class="st0" d="M298.1,50.3c0,0-39.1,38.6-88.2,13"/>
<g>
	<path class="st1" d="M337.5,5.9c0,0-3,8.8-7.6,13.9"/>
	<path class="st1" d="M341.4,8.6c0,0-4.5,8.2-9.9,12.3"/>
	<path class="st1" d="M344.8,11.9c0,0-5.8,7.3-11.9,10.4"/>
	<path class="st1" d="M347.6,15.8c0,0-7,6.2-13.5,8.2"/>
	<path class="st1" d="M349.7,20.1c0,0-7.9,4.8-14.7,5.7"/>
	<path class="st1" d="M351,24.7c0,0-8.6,3.4-15.4,3"/>
	<path class="st1" d="M351.5,29.5c0,0-9.1,1.8-15.7,0.3"/>
	<path class="st1" d="M351.2,34.3c0,0-9.3,0.2-15.5-2.5"/>
	<path class="st1" d="M350,38.9c0,0-9.1-1.4-14.9-5.2"/>
	<path class="st1" d="M348.1,43.3c0,0-8.8-3-13.8-7.7"/>
	<path class="st1" d="M345.4,47.3c0,0-8.1-4.5-12.2-10"/>
	<path class="st1" d="M342.1,50.7c0,0-7.2-5.8-10.3-12"/>
	<path class="st1" d="M338.2,53.6c0,0-6.1-7-8.1-13.6"/>
	<path class="st1" d="M334,55.7c0,0-4.8-8-5.6-14.8"/>
	<path class="st1" d="M329.4,57c0,0-3.4-8.7-3-15.6"/>
	<path class="st1" d="M324.6,57.5c0,0-1.8-9.2-0.3-15.8"/>
	<path class="st1" d="M319.9,57.1c0,0-0.2-9.3,2.5-15.7"/>
	<path class="st1" d="M315.3,56c0,0,1.4-9.2,5.1-15"/>
	<path class="st1" d="M310.9,54c0,0,3-8.8,7.6-13.9"/>
	<path class="st1" d="M307,51.3c0,0,4.5-8.2,9.9-12.3"/>
	<path class="st1" d="M303.6,48c0,0,5.8-7.3,11.9-10.4"/>
	<path class="st1" d="M300.8,44.1c0,0,7-6.2,13.5-8.2"/>
	<path class="st1" d="M298.7,39.8c0,0,7.9-4.8,14.7-5.7"/>
	<path class="st1" d="M297.4,35.2c0,0,8.6-3.4,15.4-3"/>
	<path class="st1" d="M296.9,30.4c0,0,9.1-1.8,15.7-0.3"/>
	<path class="st1" d="M297.2,25.6c0,0,9.3-0.2,15.5,2.5"/>
	<path class="st1" d="M298.4,21c0,0,9.1,1.4,14.9,5.2"/>
	<path class="st1" d="M300.3,16.6c0,0,8.8,3,13.8,7.7"/>
	<path class="st1" d="M303,12.6c0,0,8.1,4.5,12.2,10"/>
	<path class="st1" d="M306.3,9.2c0,0,7.2,5.9,10.3,12"/>
	<path class="st1" d="M310.2,6.3c0,0,6.1,7,8.1,13.6"/>
	<path class="st1" d="M314.4,4.2c0,0,4.8,8,5.6,14.8"/>
	<path class="st1" d="M319,2.9c0,0,3.4,8.7,3,15.6"/>
	<path class="st1" d="M323.8,2.4c0,0,1.8,9.2,0.3,15.9"/>
	<path class="st1" d="M328.5,2.8c0,0,0.2,9.3-2.5,15.7"/>
	<path class="st1" d="M333.1,3.9c0,0-1.4,9.2-5.1,15"/>
</g>
<g>
	<path d="M64.3,48.2l0.8-1.1c1.6,1.4,3.4,2.5,6.3,2.5c3.2,0,4.9-1.9,4.9-4.1c0-2.6-2.6-3.7-4.8-4.5c-2.9-1.1-6.1-2.2-6.1-5.6
		c0-2.7,2.1-5.1,6.1-5.1c1.9,0,4,0.8,5.4,2l-0.8,1c-1.3-1-2.6-1.8-4.7-1.8c-3.2,0-4.7,1.9-4.7,3.8c0,2.3,2.2,3.2,4.5,4.1
		c3.1,1.2,6.4,2.1,6.4,6c0,2.9-2.2,5.4-6.3,5.4C68.5,50.9,66.1,49.7,64.3,48.2z"/>
	<path d="M82.7,43.5V30.9H84v12.4c0,4.3,1.4,6.4,4.6,6.4c2.4,0,4.2-1.3,6.6-4.2V30.9h1.3v19.5h-1.1l-0.1-3.3h-0.1
		c-1.9,2.3-4,3.8-6.6,3.8C84.6,50.9,82.7,48.5,82.7,43.5z"/>
	<path d="M104.2,30.9h1.1l0.2,3.1h0.1c2-2,4-3.6,6.7-3.6c4,0,5.8,2.4,5.8,7.4v12.5h-1.3V38.1c0-4.3-1.4-6.4-4.7-6.4
		c-2.4,0-4.1,1.3-6.6,3.8v14.9h-1.3C104.2,50.4,104.2,30.9,104.2,30.9z"/>
	<path d="M123.8,40.7c0-6.3,4-10.3,8.7-10.3c2.3,0,4,0.9,5.9,2.4l-0.1-3.7V21h1.3v29.4h-1.1l-0.2-2.6h-0.1c-1.6,1.6-3.8,3.1-6.5,3.1
		C127,50.9,123.8,47.3,123.8,40.7z M138.3,46.3v-12c-2.1-1.9-3.9-2.7-5.9-2.7c-4.1,0-7.2,4-7.2,9.1c0,5.3,2.4,9,6.7,9
		C134.2,49.7,136.2,48.5,138.3,46.3z"/>
	<path d="M145.9,45.6c0-4.3,3.9-6.4,12.6-7.4c0.1-3.1-0.7-6.6-4.7-6.6c-2.8,0-5.1,1.4-6.3,2.4l-0.7-1.1c1.2-0.9,3.9-2.5,7-2.5
		c4.6,0,5.9,3.4,5.9,7.4v12.6h-1.1l-0.2-2.6h-0.1c-2,1.6-4.4,3.1-7,3.1C148.5,50.9,145.9,49.3,145.9,45.6z M158.5,46.4v-7
		c-8.4,0.9-11.3,2.9-11.3,6.2c0,3,2,4.1,4.3,4.1C153.9,49.7,156,48.6,158.5,46.4z"/>
	<path d="M164,59l0.3-1.2c0.4,0.2,1,0.3,1.6,0.3c2.4,0,4.1-2.4,5.1-5.5l0.6-1.8l-8-19.9h1.5l4.9,12.7c0.6,1.7,1.4,3.7,2.2,5.5h0.2
		c0.6-1.7,1.3-3.8,1.8-5.5l4.3-12.7h1.4l-7.7,22.2c-1,3-2.9,6.3-6.3,6.3C165.2,59.4,164.5,59.3,164,59z"/>
	<path d="M192.4,32.1h-2.7v-1l2.7-0.2v-4.7c0-3.8,1.7-5.6,4.5-5.6c0.8,0,1.8,0.2,2.7,0.6l-0.4,1.1c-0.8-0.4-1.6-0.6-2.3-0.6
		c-2.2,0-3.2,1.7-3.2,4.6v4.6h4.6v1.2h-4.6v18.3h-1.3V32.1z M202.5,48.2V21h1.3v27.4c0,0.8,0.3,1.2,0.8,1.2c0.1,0,0.3,0,0.7-0.1
		l0.2,1.1c-0.3,0.1-0.6,0.1-1.1,0.1C203.3,50.9,202.5,50.1,202.5,48.2z"/>
	<path d="M210.1,40.7c0-6.5,4-10.3,8.6-10.3s8.6,3.7,8.6,10.3c0,6.4-4,10.2-8.6,10.2S210.1,47.2,210.1,40.7z M226,40.7
		c0-5.4-3.1-9.1-7.2-9.1c-4.1,0-7.2,3.7-7.2,9.1c0,5.3,3.1,9,7.2,9C222.8,49.7,226,46,226,40.7z"/>
	<path d="M230.4,30.9h1.5l3.7,13.1c0.4,1.8,0.9,3.4,1.3,5.1h0.2c0.5-1.7,1-3.3,1.4-5.1l3.7-13.1h1.8l3.7,13.1c0.5,1.8,1,3.4,1.5,5.1
		h0.1c0.4-1.7,0.9-3.3,1.4-5.1l3.6-13.1h1.4L250,50.4h-1.8l-3.6-12.6c-0.6-1.9-1-3.7-1.5-5.6H243c-0.5,1.9-1,3.7-1.6,5.6l-3.5,12.5
		h-1.6L230.4,30.9z"/>
	<path d="M258.9,40.7c0-6.4,4-10.3,8.3-10.3c4.5,0,7.3,3.2,7.3,9c0,0.4,0,0.8-0.1,1.3h-14.2c0,5.1,3,8.9,7.5,8.9
		c2.2,0,3.9-0.7,5.3-1.8l0.6,1.1c-1.5,0.9-3.1,1.9-6,1.9C262.8,50.9,258.9,47.1,258.9,40.7z M273.2,39.5c0-5.3-2.4-7.9-6-7.9
		c-3.5,0-6.5,3-6.9,7.9H273.2z"/>
	<path d="M279.9,30.9h1.1l0.2,3.7h0.1c1.3-2.4,3.2-4.1,5.5-4.1c0.7,0,1.2,0.1,1.9,0.4l-0.3,1.2c-0.6-0.3-1-0.3-1.7-0.3
		c-1.7,0-3.9,1.4-5.4,5.2v13.5H280V30.9H279.9z"/>
</g>
</svg>
