<?xml version="1.0" encoding="utf-8"?>
<!-- Generator: Adobe Illustrator 27.4.0, SVG Export Plug-In . SVG Version: 6.00 Build 0)  -->
<svg version="1.1" id="_レイヤー_1" xmlns="http://www.w3.org/2000/svg" xmlns:xlink="http://www.w3.org/1999/xlink" x="0px"
	 y="0px" viewBox="0 0 288.7 80" style="enable-background:new 0 0 288.7 80;" xml:space="preserve">
<style type="text/css">
	.st0{fill:none;stroke:#399C37;stroke-width:3.3;stroke-linecap:round;stroke-miterlimit:10;}
	.st1{fill:none;stroke:#FFFFFF;stroke-width:1.28;stroke-linecap:round;stroke-miterlimit:10;}
</style>
<path class="st0" d="M233.8,50.3c0,0-39.1,38.6-88.2,13"/>
<g>
	<path class="st1" d="M273.2,5.9c0,0-3,8.8-7.6,13.9"/>
	<path class="st1" d="M277.1,8.6c0,0-4.5,8.2-9.9,12.3"/>
	<path class="st1" d="M280.5,11.9c0,0-5.8,7.3-11.9,10.4"/>
	<path class="st1" d="M283.3,15.8c0,0-7,6.2-13.5,8.2"/>
	<path class="st1" d="M285.4,20.1c0,0-7.9,4.8-14.7,5.7"/>
	<path class="st1" d="M286.7,24.7c0,0-8.6,3.4-15.4,3"/>
	<path class="st1" d="M287.2,29.5c0,0-9.1,1.8-15.7,0.3"/>
	<path class="st1" d="M286.9,34.3c0,0-9.3,0.2-15.5-2.5"/>
	<path class="st1" d="M285.7,38.9c0,0-9.1-1.4-14.9-5.2"/>
	<path class="st1" d="M283.8,43.3c0,0-8.8-3-13.8-7.7"/>
	<path class="st1" d="M281.1,47.3c0,0-8.1-4.5-12.2-10"/>
	<path class="st1" d="M277.8,50.7c0,0-7.2-5.8-10.3-12"/>
	<path class="st1" d="M273.9,53.6c0,0-6.1-7-8.1-13.6"/>
	<path class="st1" d="M269.7,55.7c0,0-4.8-8-5.6-14.8"/>
	<path class="st1" d="M265.1,57c0,0-3.4-8.7-3-15.6"/>
	<path class="st1" d="M260.3,57.5c0,0-1.8-9.2-0.3-15.8"/>
	<path class="st1" d="M255.6,57.1c0,0-0.2-9.3,2.5-15.7"/>
	<path class="st1" d="M251,56c0,0,1.4-9.2,5.1-15"/>
	<path class="st1" d="M246.6,54c0,0,3-8.8,7.6-13.9"/>
	<path class="st1" d="M242.7,51.3c0,0,4.5-8.2,9.9-12.3"/>
	<path class="st1" d="M239.3,48c0,0,5.8-7.3,11.9-10.4"/>
	<path class="st1" d="M236.5,44.1c0,0,7-6.2,13.5-8.2"/>
	<path class="st1" d="M234.4,39.8c0,0,7.9-4.8,14.7-5.7"/>
	<path class="st1" d="M233.1,35.2c0,0,8.6-3.4,15.4-3"/>
	<path class="st1" d="M232.6,30.4c0,0,9.1-1.8,15.7-0.3"/>
	<path class="st1" d="M232.9,25.6c0,0,9.3-0.2,15.5,2.5"/>
	<path class="st1" d="M234.1,21c0,0,9.1,1.4,14.9,5.2"/>
	<path class="st1" d="M236,16.6c0,0,8.8,3,13.8,7.7"/>
	<path class="st1" d="M238.7,12.6c0,0,8.1,4.5,12.2,10"/>
	<path class="st1" d="M242,9.2c0,0,7.2,5.9,10.3,12"/>
	<path class="st1" d="M245.9,6.3c0,0,6.1,7,8.1,13.6"/>
	<path class="st1" d="M250.1,4.2c0,0,4.8,8,5.6,14.8"/>
	<path class="st1" d="M254.7,2.9c0,0,3.4,8.7,3,15.6"/>
	<path class="st1" d="M259.5,2.4c0,0,1.8,9.2,0.3,15.9"/>
	<path class="st1" d="M264.2,2.8c0,0,0.2,9.3-2.5,15.7"/>
	<path class="st1" d="M268.8,3.9c0,0-1.4,9.2-5.1,15"/>
</g>
<g>
	<path d="M0,48.2l0.8-1.1c1.6,1.4,3.4,2.5,6.3,2.5c3.2,0,4.9-1.9,4.9-4.1c0-2.6-2.6-3.7-4.8-4.5c-2.9-1.1-6.1-2.2-6.1-5.6
		c0-2.7,2.1-5.1,6.1-5.1c1.9,0,4,0.8,5.4,2l-0.8,1c-1.3-1-2.6-1.8-4.7-1.8c-3.2,0-4.7,1.9-4.7,3.8c0,2.3,2.2,3.2,4.5,4.1
		c3.1,1.2,6.4,2.1,6.4,6c0,2.9-2.2,5.4-6.3,5.4C4.1,50.9,1.7,49.7,0,48.2z"/>
	<path d="M18.4,43.5V30.9h1.3v12.4c0,4.3,1.4,6.4,4.6,6.4c2.4,0,4.2-1.3,6.6-4.2V30.9h1.3v19.5h-1.1l-0.1-3.3h-0.1
		c-1.9,2.3-4,3.8-6.6,3.8C20.2,50.9,18.4,48.5,18.4,43.5z"/>
	<path d="M39.9,30.9H41l0.2,3.1h0.1c2-2,4-3.6,6.7-3.6c4,0,5.8,2.4,5.8,7.4v12.5h-1.3V38.1c0-4.3-1.4-6.4-4.7-6.4
		c-2.4,0-4.1,1.3-6.6,3.8v14.9h-1.3V30.9z"/>
	<path d="M59.5,40.7c0-6.3,4-10.3,8.7-10.3c2.3,0,4,0.9,5.9,2.4L74,29.2V21h1.3v29.4h-1.1L74,47.8h-0.1c-1.6,1.6-3.8,3.1-6.5,3.1
		C62.6,50.9,59.5,47.3,59.5,40.7z M74,46.3v-12c-2.1-1.9-3.9-2.7-5.9-2.7c-4.1,0-7.2,4-7.2,9.1c0,5.3,2.4,9,6.7,9
		C69.8,49.7,71.8,48.5,74,46.3z"/>
	<path d="M81.6,45.6c0-4.3,3.9-6.4,12.6-7.4c0.1-3.1-0.7-6.6-4.7-6.6c-2.8,0-5.1,1.4-6.3,2.4L82.5,33c1.2-0.9,3.9-2.5,7-2.5
		c4.6,0,5.9,3.4,5.9,7.4v12.6h-1.1l-0.2-2.6h-0.1c-2,1.6-4.4,3.1-7,3.1C84.1,50.9,81.6,49.3,81.6,45.6z M94.2,46.4v-7
		c-8.4,0.9-11.3,2.9-11.3,6.2c0,3,2,4.1,4.3,4.1C89.6,49.7,91.7,48.6,94.2,46.4z"/>
	<path d="M99.7,59l0.3-1.2c0.4,0.2,1,0.3,1.6,0.3c2.4,0,4.1-2.4,5.1-5.5l0.6-1.8l-8-19.9h1.5l4.9,12.7c0.6,1.7,1.4,3.7,2.2,5.5h0.2
		c0.6-1.7,1.3-3.8,1.8-5.5l4.3-12.7h1.4l-7.7,22.2c-1,3-2.9,6.3-6.3,6.3C100.9,59.4,100.1,59.3,99.7,59z"/>
	<path d="M128.1,32.1h-2.7v-1l2.7-0.2v-4.7c0-3.8,1.7-5.6,4.5-5.6c0.8,0,1.8,0.2,2.7,0.6l-0.4,1.1c-0.8-0.4-1.6-0.6-2.3-0.6
		c-2.2,0-3.2,1.7-3.2,4.6v4.6h4.6v1.2h-4.6v18.3h-1.3V32.1z M138.2,48.2V21h1.3v27.4c0,0.8,0.3,1.2,0.8,1.2c0.1,0,0.3,0,0.7-0.1
		l0.2,1.1c-0.3,0.1-0.6,0.1-1.1,0.1C138.9,50.9,138.2,50.1,138.2,48.2z"/>
	<path d="M145.8,40.7c0-6.5,4-10.3,8.6-10.3s8.6,3.7,8.6,10.3c0,6.4-4,10.2-8.6,10.2S145.8,47.2,145.8,40.7z M161.6,40.7
		c0-5.4-3.1-9.1-7.2-9.1c-4.1,0-7.2,3.7-7.2,9.1c0,5.3,3.1,9,7.2,9C158.5,49.7,161.6,46,161.6,40.7z"/>
	<path d="M166.1,30.9h1.5l3.7,13.1c0.4,1.8,0.9,3.4,1.3,5.1h0.2c0.5-1.7,1-3.3,1.4-5.1l3.7-13.1h1.8l3.7,13.1c0.5,1.8,1,3.4,1.5,5.1
		h0.1c0.4-1.7,0.9-3.3,1.4-5.1l3.6-13.1h1.4l-5.7,19.5H184l-3.6-12.6c-0.6-1.9-1-3.7-1.5-5.6h-0.2c-0.5,1.9-1,3.7-1.6,5.6l-3.5,12.5
		h-1.6L166.1,30.9z"/>
	<path d="M194.5,40.7c0-6.4,4-10.3,8.3-10.3c4.5,0,7.3,3.2,7.3,9c0,0.4,0,0.8-0.1,1.3h-14.2c0,5.1,3,8.9,7.5,8.9
		c2.2,0,3.9-0.7,5.3-1.8l0.6,1.1c-1.5,0.9-3.1,1.9-6,1.9C198.5,50.9,194.5,47.1,194.5,40.7z M208.9,39.5c0-5.3-2.4-7.9-6-7.9
		c-3.5,0-6.5,3-6.9,7.9H208.9z"/>
	<path d="M215.6,30.9h1.1l0.2,3.7h0.1c1.3-2.4,3.2-4.1,5.5-4.1c0.7,0,1.2,0.1,1.9,0.4l-0.3,1.2c-0.6-0.3-1-0.3-1.7-0.3
		c-1.7,0-3.9,1.4-5.4,5.2v13.5h-1.3V30.9z"/>
</g>
</svg>
